:version 1.10
:name ASF
:units
  mass 1
  length 1
  angle deg
:documentation
  ASF file generated by Kaydara
:root
  axis xyz
  order  tx ty tz rx ry rz
  position 0 0 0
  orientation 0 0 0
:bonedata
  begin
    id 1
    name RightUpLegDummy
    direction -0.718183 -0.695806 0.00816078
    length 4.904
    axis 0 0 0 xyz
  end
  begin
    id 2
    name RightUpLeg
    direction 3.53373e-006 -0.995788 0.0916898
    length 17.4976
    axis -3.49089 -0.000906625 0.000286804 xyz
    dof rx ry rz
  end
  begin
    id 3
    name RightLeg
    direction 0.00371092 -0.995096 -0.0988419
    length 16.5821
    axis 3.68512 0.0193738 -0.131023 xyz
    dof rx ry rz
  end
  begin
    id 4
    name RightFoot
    direction 0.00079151 -0.46099 0.887405
    length 3.77069
    axis 4.81691e-005 -0.120479 -0.188788 xyz
    dof rx ry rz
  end
  begin
    id 5
    name RightToes
    direction 0 0 0
    length 0
    axis 0 0 0 xyz
    dof rx ry rz
  end
  begin
    id 6
    name SpineDummy
    direction 8.3039e-015 1 4.57515e-016
    length 4.6813
    axis 0 0 0 xyz
  end
  begin
    id 7
    name Spine
    direction -3.15643e-008 0.999988 0.00495137
    length 10.1015
    axis -0.001389 0.000121418 2.40972e-006 xyz
    dof rx ry rz
  end
  begin
    id 8
    name Spine1
    direction 0 0 0
    length 0
    axis -0.001389 0.000121451 1.30017e-006 xyz
    dof rx ry rz
  end
  begin
    id 9
    name HEadDummy
    direction -1.99912e-008 0.999999 0.00127422
    length 3.43865
    axis -0.001389 0.000121451 1.30017e-006 xyz
  end
  begin
    id 10
    name HEad
    direction 0 0 0
    length 0
    axis 0 0 0 xyz
    dof rx ry rz
  end
  begin
    id 11
    name LeftShoulder1Dummy
    direction 0.998891 -0.0402509 -0.0244456
    length 3.5433
    axis -0.001389 0.000121451 1.30017e-006 xyz
  end
  begin
    id 12
    name LeftShoulder1
    direction 0.99951 -0.000327763 0.0313091
    length 4.05031
    axis -0.001389 0.000121451 1.30017e-006 xyz
    dof rx ry rz
  end
  begin
    id 13
    name LeftArm
    direction 0.998561 -0.00100056 -0.0536182
    length 10.3537
    axis -23.1894 0.134784 0.967509 xyz
    dof rx ry rz
  end
  begin
    id 14
    name LeftForeArm
    direction 0.998903 0.00866432 0.046012
    length 8.70632
    axis -9.91835 -0.06569 -0.177794 xyz
    dof rx ry rz
  end
  begin
    id 15
    name LeftHand
    direction 0 0 0
    length 0
    axis 0 0 0 xyz
    dof rx ry rz
  end
  begin
    id 16
    name RightShoulderDummy
    direction -0.998891 -0.0402509 -0.0244414
    length 3.5433
    axis -0.001389 0.000121451 1.30017e-006 xyz
  end
  begin
    id 17
    name RightShoulder
    direction -0.99951 -0.000327807 0.0313133
    length 4.05031
    axis 0.215806 0.000203643 -0.0068026 xyz
    dof rx ry rz
  end
  begin
    id 18
    name RightArm
    direction -0.998573 -0.000999564 -0.053403
    length 10.3947
    axis -23.2009 -0.134239 -0.964101 xyz
    dof rx ry rz
  end
  begin
    id 19
    name RightForeArm
    direction -0.998898 0.00868028 0.0461306
    length 8.68355
    axis -9.92322 0.0658061 0.178868 xyz
    dof rx ry rz
  end
  begin
    id 20
    name RightHand
    direction 0 0 0
    length 0
    axis 0 0 0 xyz
    dof rx ry rz
  end
  begin
    id 21
    name LeftUpLegDummy
    direction 0.718183 -0.695806 0.00816078
    length 4.904
    axis 0 0 0 xyz
  end
  begin
    id 22
    name LeftUpLeg
    direction -6.81752e-006 -0.995793 0.0916337
    length 17.4976
    axis -3.48766 0.00143442 -0.000524262 xyz
    dof rx ry rz
  end
  begin
    id 23
    name LeftLeg
    direction -0.00601358 -0.995091 -0.0987824
    length 16.5821
    axis 3.68178 -0.00654042 -0.000285133 xyz
    dof rx ry rz
  end
  begin
    id 24
    name LeftFoot
    direction -0.00417578 -0.460984 0.887399
    length 3.77069
    axis 1.87233e-006 4.66016e-005 -8.6538e-006 xyz
    dof rx ry rz
  end
  begin
    id 25
    name LeftToes
    direction 0 0 0
    length 0
    axis 0 0 0 xyz
    dof rx ry rz
  end
:hierarchy
  begin
    root RightUpLegDummy SpineDummy LeftUpLegDummy
    RightUpLegDummy RightUpLeg
    RightUpLeg RightLeg
    RightLeg RightFoot
    RightFoot RightToes
    SpineDummy Spine
    Spine Spine1
    Spine1 HEadDummy LeftShoulder1Dummy RightShoulderDummy
    HEadDummy HEad
    LeftShoulder1Dummy LeftShoulder1
    LeftShoulder1 LeftArm
    LeftArm LeftForeArm
    LeftForeArm LeftHand
    RightShoulderDummy RightShoulder
    RightShoulder RightArm
    RightArm RightForeArm
    RightForeArm RightHand
    LeftUpLegDummy LeftUpLeg
    LeftUpLeg LeftLeg
    LeftLeg LeftFoot
    LeftFoot LeftToes
  end

:SAMPLES-PER-SECOND 30
:FULLY-SPECIFIED
:DEGREES
127
root  -45.7094 39.1284 2.35773 -102.504 -84.786 95.3551
RightUpLeg  10.1321 -8.74786 -14.3212
RightLeg  44.0502 -0.70097 -1.06172
RightFoot  -5.30962 -0.757596 13.8927
RightToes  0.000481921 0.542163 -0.142578
Spine  8.80749 4.34522 0.601715
Spine1  8.25994 7.46197 -10.0043
HEad  -21.3571 -19.2512 15.3905
LeftShoulder1  7.58327 -10.9988 -45.5707
LeftArm  -16.3325 40.6771 -29.5492
LeftForeArm  7.22934 -3.65557 -2.14009
LeftHand  -0.25398 0.0180481 5.50724
RightShoulder  5.78403 8.28494 42.7397
RightArm  -18.8579 -18.1521 35.5204
RightForeArm  10.3075 64.6814 24.0078
RightHand  -3.22007 9.44784 -25.3858
LeftUpLeg  -16.604 12.1205 -5.47773
LeftLeg  24.1169 1.89246 1.26029
LeftFoot  -0.871957 -0.122029 1.39083
LeftToes  1.06247e-005 4.65869e-005 -8.65512e-006
128
root  -46.8079 39.3124 2.40212 -99.0707 -84.0876 91.4545
RightUpLeg  3.20997 -8.18257 -14.7894
RightLeg  55.8638 -2.41021 -4.26985
RightFoot  0.286557 -1.1827 11.5371
RightToes  0.000481921 0.542163 -0.142578
Spine  9.80911 2.74782 -4.26894
Spine1  8.38862 4.24586 -5.67417
HEad  -21.6782 -20.5001 18.5537
LeftShoulder1  8.38285 -11.7426 -47.9811
LeftArm  -18.2228 30.68 -30.5315
LeftForeArm  8.64135 -6.43087 -2.40523
LeftHand  -0.25398 0.0180481 5.50724
RightShoulder  5.89706 8.6369 42.2865
RightArm  -12.8072 -21.1402 36.0221
RightForeArm  -1.3503 58.8923 19.1578
RightHand  -4.31228 12.2851 -28.29
LeftUpLeg  -13.8337 10.7277 -5.96739
LeftLeg  23.6169 2.95356 1.74853
LeftFoot  -2.55759 -0.0405413 0.745514
LeftToes  1.06247e-005 4.65869e-005 -8.65512e-006
129
root  -47.8797 39.6033 2.43596 -98.2878 -84.2526 90.179
RightUpLeg  -3.31797 -8.39102 -14.2974
RightLeg  64.2623 -3.22222 -7.80309
RightFoot  1.8455 -1.14068 9.92926
RightToes  0.000481921 0.542163 -0.142578
Spine  11.5254 1.30051 -7.09945
Spine1  7.51715 1.36207 -1.92107
HEad  -20.0896 -20.0894 19.5338
LeftShoulder1  9.09789 -12.424 -49.8712
LeftArm  -17.7356 20.8652 -28.3285
LeftForeArm  12.5334 -11.5673 -3.17476
LeftHand  -0.25398 0.0180481 5.50724
RightShoulder  6.01237 9.07372 41.5676
RightArm  -5.28678 -25.5924 34.3923
RightForeArm  -4.92109 56.4965 17.6271
RightHand  -4.15905 12.2896 -27.2597
LeftUpLeg  -10.662 9.40856 -5.55811
LeftLeg  22.1845 3.6896 1.98965
LeftFoot  -3.01008 -0.0418001 0.826745
LeftToes  1.06247e-005 4.65869e-005 -8.65512e-006
130
root  -48.9418 39.9354 2.42442 -98.6202 -84.7994 90.3738
RightUpLeg  -9.72039 -8.88902 -13.0988
RightLeg  68.5689 -3.09776 -9.38738
RightFoot  1.71313 -1.02028 9.00219
RightToes  0.000481921 0.542163 -0.142578
Spine  13.3305 0.34471 -8.49905
Spine1  6.03816 -0.685276 1.07423
HEad  -18.0811 -19.1773 19.146
LeftShoulder1  9.20647 -12.65 -49.7537
LeftArm  -16.0217 12.3894 -25.851
LeftForeArm  18.8336 -20.4011 -3.94369
LeftHand  -0.25398 0.0180481 5.50724
RightShoulder  5.86949 9.07767 40.4818
RightArm  -0.0937879 -32.2599 32.2001
RightForeArm  -0.89085 59.9476 20.1484
RightHand  -3.83881 11.692 -26.1148
LeftUpLeg  -7.74137 9.04707 -4.62595
LeftLeg  20.4876 3.64312 1.85046
LeftFoot  -4.06422 -0.00559312 0.450847
LeftToes  1.06247e-005 4.65869e-005 -8.65512e-006
131
root  -49.9982 40.2084 2.38484 -101.02 -85.3488 93.0865
RightUpLeg  -16.0615 -9.24396 -11.6535
RightLeg  69.1675 -2.8501 -9.05243
RightFoot  1.57354 -0.907385 8.09713
RightToes  0.000481921 0.542163 -0.142578
Spine  14.9531 -0.471548 -9.76051
Spine1  4.11189 -2.51778 3.98721
HEad  -15.787 -17.7587 17.8952
LeftShoulder1  8.62853 -12.3154 -47.5946
LeftArm  -18.5591 6.90251 -24.7228
LeftForeArm  28.4224 -33.2825 -5.7301
LeftHand  -0.25398 0.0180481 5.50724
RightShoulder  5.38523 8.65643 38.2266
RightArm  2.79576 -39.4491 30.8389
RightForeArm  7.18037 65.7386 25.6706
RightHand  -3.50497 10.7822 -25.2123
LeftUpLeg  -5.32047 9.54041 -3.52467
LeftLeg  18.8738 3.10906 1.42056
LeftFoot  -5.47422 0.0618849 -0.558167
LeftToes  1.06247e-005 4.65869e-005 -8.65512e-006
132
root  -51.0707 40.3931 2.33568 -103.85 -85.8165 96.372
RightUpLeg  -21.2823 -9.62353 -10.3443
RightLeg  66.0737 -3.29549 -8.72855
RightFoot  0.96067 -0.795023 7.42867
RightToes  0.000481921 0.542163 -0.142578
Spine  16.7214 -1.48544 -11.6805
Spine1  1.63934 -4.7362 7.86051
HEad  -13.2378 -14.7287 15.839
LeftShoulder1  7.74564 -11.5481 -44.829
LeftArm  -23.9768 4.69481 -24.0681
LeftForeArm  36.413 -47.8493 -9.76392
LeftHand  -0.25398 0.0180481 5.50724
RightShoulder  4.75129 8.16459 34.7672
RightArm  4.41068 -45.3414 30.3274
RightForeArm  16.9727 70.484 32.7838
RightHand  -2.85638 9.17974 -22.8794
LeftUpLeg  -3.22695 9.31136 -2.46922
LeftLeg  17.5621 3.3158 0.898981
LeftFoot  -6.25264 0.0825966 -1.00131
LeftToes  1.06247e-005 4.65869e-005 -8.65512e-006
133
root  -52.1643 40.4935 2.24947 -100.89 -86.1483 93.924
RightUpLeg  -24.525 -10.4689 -9.42443
RightLeg  58.8381 -4.402 -8.28776
RightFoot  -0.182728 -0.720793 7.35646
RightToes  0.000481921 0.542163 -0.142578
Spine  18.7599 -2.60047 -14.2853
Spine1  -1.36649 -7.12421 12.7675
HEad  -10.3462 -10.2546 13.1528
LeftShoulder1  6.80905 -10.5277 -42.1222
LeftArm  -28.7052 4.32693 -22.8959
LeftForeArm  40.7223 -60.8413 -16.3818
LeftHand  -0.25398 0.0180481 5.50724
RightShoulder  4.00752 7.3721 30.8802
RightArm  4.39813 -49.2928 30.4373
RightForeArm  27.1812 73.8498 41.029
RightHand  -2.14251 7.35517 -19.7567
LeftUpLeg  -1.63368 8.3673 -1.83387
LeftLeg  16.9011 3.90798 0.679708
LeftFoot  -7.07463 0.0659613 -0.609355
LeftToes  1.06247e-005 4.65869e-005 -8.65512e-006
134
root  -53.3006 40.5114 2.0961 -88.9424 -86.2623 82.7009
RightUpLeg  -25.903 -11.7007 -8.84307
RightLeg  47.639 -4.87689 -6.10176
RightFoot  -0.686798 -0.695619 7.40123
RightToes  0.000481921 0.542163 -0.142578
Spine  20.8742 -3.6119 -17.3283
Spine1  -4.8576 -9.234 18.23
HEad  -7.53628 -4.91856 10.3242
LeftShoulder1  5.81916 -9.39473 -38.8953
LeftArm  -32.4288 5.19269 -21.8784
LeftForeArm  48.6519 -71.2998 -28.6036
LeftHand  -0.25398 0.0180481 5.50724
RightShoulder  2.99414 5.55868 26.9569
RightArm  2.81566 -50.9072 31.5594
RightForeArm  37.0189 76.2453 50.7973
RightHand  -1.65303 5.70381 -17.5753
LeftUpLeg  -0.624026 7.48018 -1.52128
LeftLeg  16.9412 3.96353 0.754797
LeftFoot  -8.82225 0.0643059 -0.581195
LeftToes  1.06247e-005 4.65869e-005 -8.65512e-006
135
root  -54.543 40.4376 1.85998 -73.6208 -85.9059 68.0891
RightUpLeg  -25.3495 -12.8464 -8.63884
RightLeg  33.8588 -3.35217 -2.73329
RightFoot  -0.514649 -0.775528 8.13623
RightToes  0.000481921 0.542163 -0.142578
Spine  22.8359 -4.4498 -20.9233
Spine1  -8.49602 -10.9457 24.0754
HEad  -4.97761 0.990128 7.57595
LeftShoulder1  4.97771 -8.47152 -35.4866
LeftArm  -35.7301 8.21777 -21.6526
LeftForeArm  75.5021 -78.9906 -57.1149
LeftHand  -0.25398 0.0180481 5.50724
RightShoulder  1.88128 2.88919 23.1889
RightArm  0.124496 -49.8932 34.0195
RightForeArm  44.7288 77.4765 58.5834
RightHand  -1.32329 4.20829 -16.2436
LeftUpLeg  0.409509 6.71135 -1.2079
LeftLeg  17.3605 3.41511 0.701013
LeftFoot  -10.8954 0.070508 -1.43012
LeftToes  1.06247e-005 4.65869e-005 -8.65512e-006
136
root  -55.9568 40.2417 1.52172 -62.426 -84.7663 57.1583
RightUpLeg  -22.7651 -13.9482 -9.1621
RightLeg  20.45 -0.726015 -0.408183
RightFoot  0.281852 -1.0517 10.2669
RightToes  0.000481921 0.542163 -0.142578
Spine  24.131 -5.12165 -25.0317
Spine1  -11.4683 -12.3007 29.7899
HEad  -2.44469 7.0901 4.79698
LeftShoulder1  4.51206 -7.91634 -33.4463
LeftArm  -38.231 12.9391 -21.6169
LeftForeArm  129.52 -80.258 -109.99
LeftHand  -0.25398 0.0180481 5.50724
RightShoulder  1.01586 0.376718 19.7487
RightArm  -4.38594 -47.3552 38.242
RightForeArm  50.1204 77.9173 61.0171
RightHand  -1.04549 3.02722 -14.6326
LeftUpLeg  2.12248 6.11616 -1.03893
LeftLeg  17.9759 2.45547 0.425399
LeftFoot  -12.9064 0.0497698 -2.14888
LeftToes  1.06247e-005 4.65869e-005 -8.65512e-006
137
root  -57.4733 39.9911 1.13403 -55.5226 -83.2802 50.2224
RightUpLeg  -19.6489 -14.6857 -10.1411
RightLeg  11.6732 -0.0874726 0.640081
RightFoot  3.05923 -1.36308 10.9932
RightToes  0.000481921 0.542163 -0.142578
Spine  24.2397 -5.8055 -27.9034
Spine1  -12.9995 -13.3537 33.8679
HEad  0.112896 12.8494 1.96825
LeftShoulder1  4.1357 -7.09994 -32.9284
LeftArm  -38.4894 16.6415 -21.9757
LeftForeArm  160.349 -76.0491 -139.972
LeftHand  -0.25398 0.0180481 5.50724
RightShoulder  0.495208 -1.42688 17.3864
RightArm  -10.97 -45.2038 43.4464
RightForeArm  57.1791 78.4198 63.8325
RightHand  -0.83436 2.22804 -12.9137
LeftUpLeg  4.44012 5.42427 -0.992562
LeftLeg  18.3082 1.73112 0.421432
LeftFoot  -15.3037 0.00265132 -2.54007
LeftToes  1.06247e-005 4.65869e-005 -8.65512e-006
138
root  -58.9137 39.7805 0.803834 -48.0005 -82.5462 42.7677
RightUpLeg  -18.3021 -14.748 -10.2444
RightLeg  10.3803 -1.4587 1.5286
RightFoot  7.32831 -1.15565 7.41758
RightToes  0.000481921 0.542163 -0.142578
Spine  23.4497 -6.41677 -27.2428
Spine1  -13.4071 -13.6874 34.9339
HEad  1.82373 17.903 -0.859458
LeftShoulder1  3.82893 -6.21924 -33.3187
LeftArm  -36.1768 18.3391 -23.4319
LeftForeArm  169.778 -72.0857 -150.266
LeftHand  -0.25398 0.0180481 5.50724
RightShoulder  0.357091 -2.04416 17.8542
RightArm  -18.1474 -44.2035 46.6502
RightForeArm  66.0802 79.1045 72.4135
RightHand  -0.706619 1.48153 -12.1095
LeftUpLeg  6.12906 3.84528 -0.437335
LeftLeg  19.3177 1.98513 1.04267
LeftFoot  -17.7703 -0.143573 -4.35064
LeftToes  1.06247e-005 4.65869e-005 -8.65512e-006
